<svg xmlns="http://www.w3.org/2000/svg"
     width="297.01mm" height="210.02mm" viewBox="0 0 297.01 210.02">
  <rect width="297.01" height="210.02" fill="#fff"/>
  <g fill="#000">
    <rect x="6.520" y="49.960" width="275.930" height="3.600"/>
    <rect x="6.520" y="57.070" width="275.930" height="6.600"/>
    <rect x="6.520" y="70.190" width="275.930" height="3.600"/>
    <rect x="6.520" y="80.310" width="275.930" height="3.600"/>
    <rect x="6.520" y="87.420" width="275.930" height="6.600"/>
    <rect x="6.520" y="100.540" width="275.930" height="3.600"/>
    <path d="M 132.5 124.1 L 144.0 112.1 L 156.4 124.1 L 150.0 124.1 L 150.0 136.8 L 139.0 136.8 L 139.0 124.1 Z"/>
  </g>
    <g stroke="#000" stroke-width="0.4"><line x1="98.50" y1="142.14" x2="98.50" y2="150.14"/><line x1="198.50" y1="142.14" x2="198.50" y2="150.14"/><line x1="98.50" y1="146.14" x2="198.50" y2="146.14"/></g>
  <text x="98.50" y="155.14" font-family="sans-serif" font-size="3.2" fill="#000">100 mm Kontrollmass: nachmessen. Stimmt es nicht, wurde skaliert gedruckt und das Muster ist ungueltig.</text>
  <text x="8" y="166.14" font-family="sans-serif" font-size="4.2" fill="#000">VORLAUF 1: 1 fuehrende duenne Balken</text>
  <text x="8" y="172.14" font-family="sans-serif" font-size="3.2" fill="#000">Die Fassung, von der berichtet ist, dass sie funktionierte: drei fuehrende duenne Balken fehlen gegenueber dem Original.</text>
  <text x="8" y="177.14" font-family="sans-serif" font-size="3.2" fill="#000">Balken dDddDd   Luecken lLLlL   100 % drucken, nicht skalieren</text>
</svg>
