<svg xmlns="http://www.w3.org/2000/svg"
     width="297.01mm" height="210.02mm" viewBox="0 0 297.01 210.02">
  <rect width="297.01" height="210.02" fill="#fff"/>
  <g fill="#000">
    <rect x="6.520" y="49.960" width="275.930" height="6.600"/>
    <rect x="6.520" y="63.080" width="275.930" height="3.600"/>
    <rect x="6.520" y="73.200" width="275.930" height="3.600"/>
    <rect x="6.520" y="83.320" width="275.930" height="3.600"/>
    <rect x="6.520" y="93.440" width="275.930" height="3.600"/>
    <rect x="6.520" y="103.560" width="275.930" height="3.600"/>
    <rect x="6.520" y="113.680" width="275.930" height="3.600"/>
    <rect x="6.520" y="123.800" width="275.930" height="3.600"/>
    <rect x="6.520" y="133.920" width="275.930" height="3.600"/>
    <rect x="6.520" y="144.040" width="275.930" height="3.600"/>
    <rect x="6.520" y="154.160" width="275.930" height="3.600"/>
    <rect x="6.520" y="164.280" width="275.930" height="3.600"/>
    <rect x="6.520" y="174.400" width="275.930" height="3.600"/>
    <rect x="6.520" y="184.520" width="275.930" height="3.600"/>
    <rect x="6.520" y="194.640" width="275.930" height="3.600"/>
    <rect x="6.520" y="204.760" width="275.930" height="3.600"/>
    <rect x="6.520" y="214.880" width="275.930" height="3.600"/>
    <rect x="6.520" y="225.000" width="275.930" height="3.600"/>
    <rect x="6.520" y="235.120" width="275.930" height="3.600"/>
    <rect x="6.520" y="245.240" width="275.930" height="3.600"/>
    <rect x="6.520" y="255.360" width="275.930" height="3.600"/>
    <rect x="6.520" y="265.480" width="275.930" height="3.600"/>
    <rect x="6.520" y="275.600" width="275.930" height="6.600"/>
    <path d="M 132.5 302.2 L 144.0 290.2 L 156.4 302.2 L 150.0 302.2 L 150.0 314.9 L 139.0 314.9 L 139.0 302.2 Z"/>
  </g>
    <g stroke="#000" stroke-width="0.4"><line x1="98.50" y1="320.20" x2="98.50" y2="328.20"/><line x1="198.50" y1="320.20" x2="198.50" y2="328.20"/><line x1="98.50" y1="324.20" x2="198.50" y2="324.20"/></g>
  <text x="98.50" y="333.20" font-family="sans-serif" font-size="3.2" fill="#000">100 mm Kontrollmass: nachmessen. Stimmt es nicht, wurde skaliert gedruckt und das Muster ist ungueltig.</text>
  <text x="8" y="344.20" font-family="sans-serif" font-size="4.2" fill="#000">BOXENGASSE, Katalognummer 22 (0x16)</text>
  <text x="8" y="350.20" font-family="sans-serif" font-size="3.2" fill="#000">Ausweichnummer, falls 14 schon vergeben ist. Gleiche Bauart.</text>
  <text x="8" y="355.20" font-family="sans-serif" font-size="3.2" fill="#000">Balken DdddddddddddddddddddddD   Luecken LLLLLLLLLLLLLLLLLLLLLL   100 % drucken, nicht skalieren</text>
</svg>
